<svg xmlns="http://www.w3.org/2000/svg" width="91.3" height="91.3" viewBox="254 3686 91.3 91.3"><path d="M309.829 3775.609v-9.57a1.725 1.725 0 0 1 1.69-1.69c.92.018 1.658.77 1.658 1.69v9.57a1.69 1.69 0 0 1-1.657 1.69c-.934 0-1.691-.757-1.691-1.69Zm-43.993-10.144c-6.387-6.388-6.387-16.743 0-23.13l15.656-15.554c6.363-6.35 16.666-6.35 23.028 0 .648.669.648 1.732 0 2.4a1.691 1.691 0 0 1-2.4 0c-5.1-4.873-13.13-4.873-18.227 0l-15.555 15.555c-5.033 5.033-5.033 13.193 0 18.226 5.033 5.033 13.193 5.033 18.226 0l15.555-15.554c.33-.307.771-.47 1.222-.451.45.02.875.219 1.18.552a1.726 1.726 0 0 1 0 2.401l-15.556 15.555a16.302 16.302 0 0 1-11.564 4.79 16.302 16.302 0 0 1-11.565-4.79Zm68.306 3.043-6.764-6.763a1.676 1.676 0 0 1 2.367-2.367l6.798 6.73a1.724 1.724 0 0 1 0 2.4 1.827 1.827 0 0 1-1.218.474 1.762 1.762 0 0 1-1.183-.474Zm-.102-23.332c-.934 0-1.691-.758-1.691-1.691a1.726 1.726 0 0 1 1.69-1.691h9.571a1.69 1.69 0 0 1 0 3.382h-9.57Zm-39.157-8.758a1.723 1.723 0 0 1 0-2.4 1.691 1.691 0 0 1 2.4 0c5.098 4.872 13.13 4.872 18.227 0l15.554-15.556c5.033-5.033 5.033-13.193 0-18.226-5.033-5.033-13.193-5.033-18.226 0l-15.554 15.554a1.691 1.691 0 0 1-2.401 0 1.722 1.722 0 0 1 0-2.4l15.554-15.555c6.37-6.332 16.658-6.332 23.028 0 6.333 6.37 6.333 16.658 0 23.028l-15.554 15.555a16.248 16.248 0 0 1-11.514 4.763 16.248 16.248 0 0 1-11.514-4.763Zm-39.192-14.912a1.69 1.69 0 0 1-1.69-1.725c0-.933.757-1.69 1.69-1.69h9.57c.934 0 1.69.757 1.69 1.69 0 .939-.75 1.706-1.69 1.725h-9.57Zm13.865-17.584-6.797-6.729a1.698 1.698 0 0 1 2.4-2.401l6.763 6.764a1.62 1.62 0 0 1 0 2.366 1.624 1.624 0 0 1-2.366 0Zm16.568-6.662v-9.57a1.69 1.69 0 0 1 1.658-1.69c.933 0 1.69.757 1.69 1.69v9.57a1.725 1.725 0 0 1-1.69 1.69 1.69 1.69 0 0 1-1.658-1.69Z" fill="#fff" fill-rule="evenodd" data-name="Path 41"/></svg>