<svg xmlns="http://www.w3.org/2000/svg" width="91.226" height="82.452" viewBox="254 3691 91.226 82.452"><path d="m285.022 3772.333-8.957-17.589-1.609.611a4.098 4.098 0 0 1-1.472.272 4.16 4.16 0 0 1-1.694-.363 4.11 4.11 0 0 1-2.168-2.299l-.108-.286-4.025 1.527a5.27 5.27 0 0 1-1.906.353 5.406 5.406 0 0 1-5.051-3.49l-3.68-9.708c-1.058-2.783.353-5.908 3.136-6.967l4.013-1.52-.112-.295a4.126 4.126 0 0 1 2.39-5.323l25.015-9.492 20.536-25.826a2.483 2.483 0 0 1 4.265.665l21.112 55.644a2.493 2.493 0 0 1-.404 2.46 2.459 2.459 0 0 1-1.905.897c-.14 0-.283-.01-.424-.04l-32.518-5.7-6.688 2.54.945 2.485a6.246 6.246 0 0 1-.787 5.887l-1.028 1.422 4.83 9.205c.271.514.312 1.13.1 1.674a2.064 2.064 0 0 1-1.19 1.19l-8.075 3.065c-.232.08-.485.12-.726.12a2.028 2.028 0 0 1-1.815-1.119Zm2.288-2.157 6.221-2.36-5.192-9.88 2.137-2.944a3.179 3.179 0 0 0 .404-3.035l-.938-2.47-9.172 3.471-1.857.705 8.397 16.513Zm-15.355-18.27c.101.273.313.495.575.616.272.12.565.131.847.03l1.318-.5-.007-.014 17.008-6.453.004.01 5.652-2.147-8.334-21.993-.175-.46-23.975 9.104a1.11 1.11 0 0 0-.616.575c-.12.272-.13.564-.03.847l.107.281.025-.01 7.52 19.802-.033.013.114.3Zm-13.409-14.679a2.383 2.383 0 0 0-1.38 3.065l3.68 9.71a2.384 2.384 0 0 0 3.064 1.38l4.03-1.531-5.368-14.154-4.026 1.53Zm32.898-17.916 8.973 23.653 31.134 5.454-20.437-53.848-19.67 24.741Zm-20.732 13.67 14.808-5.62 1.073 2.828-14.808 5.62-1.073-2.828Zm64.733.888.244-3.014 9.537.774-.245 3.014-9.536-.774Zm-2.78-18.294 8.944-3.395 1.074 2.828-8.946 3.395-1.072-2.828Zm-8.978-12.696 6.629-6.913 2.183 2.093-6.628 6.913-2.184-2.093Z" fill="#fff" fill-rule="evenodd" data-name="Path 43"/></svg>