<svg xmlns="http://www.w3.org/2000/svg" width="90.756" height="90.751" viewBox="255 3687 90.756 90.751"><path d="M321.649 3777.751a4.254 4.254 0 0 1-4.254-4.255v-18.434h-18.903a13.445 13.445 0 0 0-.95 5.785c.092 1.423.412 2.822.95 4.142h3.305a1.418 1.418 0 0 1 0 2.835h-22.69a1.417 1.417 0 1 1 0-2.835h3.333c.528-1.323.84-2.72.921-4.142a13.433 13.433 0 0 0-.921-5.785h-23.186a4.253 4.253 0 0 1-4.254-4.254v-42.543a4.253 4.253 0 0 1 4.254-4.254h51.094c.269-.269.524-.538.807-.808a122.572 122.572 0 0 1 14.181-12.393c5.133-3.687 7.913-4.61 9.388-3.149 1.474 1.46.525 4.268-3.148 9.387a105.723 105.723 0 0 1-6.85 8.282 4.258 4.258 0 0 1 1.178 2.935v24.107h15.598a4.254 4.254 0 0 1 4.254 4.255v36.87a4.254 4.254 0 0 1-4.254 4.254H321.65Zm-1.418-41.124v36.87c0 .783.636 1.418 1.418 1.418h19.853a1.42 1.42 0 0 0 1.418-1.419v-36.869a1.42 1.42 0 0 0-1.418-1.419H321.65a1.42 1.42 0 0 0-1.418 1.42Zm-34.034 24.391a16.193 16.193 0 0 1-.766 3.97h10.026a15.71 15.71 0 0 1-.751-3.97 16.56 16.56 0 0 1 .78-5.956h-10.04a16.55 16.55 0 0 1 .75 5.956Zm-28.361-10.21c0 .782.635 1.418 1.418 1.418h58.141v-5.673h-59.56v4.255Zm0-42.543v35.452h59.56v-7.09a4.254 4.254 0 0 1 4.253-4.255h1.418v-24.107a1.318 1.318 0 0 0-.27-.822 149.223 149.223 0 0 1-3.657 3.772 124.103 124.103 0 0 1-14.182 12.395 37.133 37.133 0 0 1-3.927 2.523 14.92 14.92 0 0 1-7.233 9.075h12.252a1.418 1.418 0 0 1 0 2.837h-36.87a1.418 1.418 0 0 1 0-2.837h11.345c.95 0 3.021-2.126 4.523-3.672l.128-.141a23.539 23.539 0 0 0 3.19-4.17 12.943 12.943 0 0 1 4.184-4.552 10.963 10.963 0 0 1 3.673-1.418 36.345 36.345 0 0 1 2.497-3.885 110.684 110.684 0 0 1 8.848-10.523h-48.314c-.783 0-1.418.636-1.418 1.418Zm36.303 16.733a10.239 10.239 0 0 0-3.29 3.673 26.731 26.731 0 0 1-3.532 4.623l-.127.127-1.418 1.42c5.956-.852 9.771-3.305 11.77-7.474h-.27a2.282 2.282 0 0 1-1.7-.666 2.412 2.412 0 0 1-.525-2.128 7.829 7.829 0 0 0-.908.425Zm19.002-19.796c-9.374 9.33-14.663 16.86-15.33 19.315 2.454-.652 9.984-5.914 19.315-15.301 9.33-9.388 14.62-16.86 15.3-19.315-2.453.667-9.983 5.956-19.285 15.301Zm15.599 66.876a1.417 1.417 0 1 1 0-2.836h5.672a1.418 1.418 0 0 1 0 2.836h-5.672Zm-39.706-21.27a1.418 1.418 0 0 1 0-2.837h2.836a1.418 1.418 0 0 1 0 2.837h-2.836Zm41.124-12.763a1.417 1.417 0 1 1 2.834-.001 1.417 1.417 0 0 1-2.834.001Z" fill="#fff" fill-rule="evenodd" data-name="Path 40"/></svg>