<svg xmlns="http://www.w3.org/2000/svg" width="88.169" height="88.315" viewBox="256 3688 88.169 88.315"><path d="m330.594 3775.001-17.518-17.516c-.875-.877-1.314-1.899-1.314-3.065 0-1.168.439-2.336 1.314-3.067l-10.656-10.656c-4.816 3.504-10.802 5.693-17.225 5.693-16.057 0-29.195-13.138-29.195-29.195 0-16.057 13.138-29.195 29.195-29.195 9.342 0 17.518 4.379 22.773 11.094l-2.628 1.313c-4.817-5.838-11.97-9.488-20.145-9.488-14.452 0-26.276 11.824-26.276 26.276s11.824 26.276 26.276 26.276c10.073 0 18.832-5.547 23.21-13.867.877.437 1.752.729 2.628 1.02-.73 1.461-1.605 2.775-2.482 3.942l10.802 10.657c1.753-1.752 4.38-1.752 5.986 0l17.517 17.517c1.75 1.751 1.75 4.524 0 6.131l-6.132 6.13c-.73.877-1.897 1.314-3.065 1.314s-2.19-.437-3.065-1.314Zm-9.197-27.88-6.13 6.13c-.293.292-.438.584-.438 1.021 0 .44.145.73.437 1.023l17.517 17.518c.584.583 1.46.583 2.044 0l6.131-6.132c.584-.584.584-1.46 0-2.044l-17.518-17.517a1.575 1.575 0 0 0-1.02-.437c-.44 0-.73.146-1.023.437Zm-16.641-8.32 10.364 10.51 2.19-2.045-10.51-10.51c-.585.73-1.314 1.46-2.044 2.044Zm35.472-24.525c-3.504-3.65-6.86-6.57-10.364-8.466 1.313 1.897 2.044 4.378 2.044 7.006 0 7.298-5.84 13.138-13.138 13.138-7.3 0-13.138-5.84-13.138-13.138 0-2.628.73-4.963 2.043-7.006-3.357 1.897-6.86 4.816-10.364 8.466 5.402 5.838 15.182 13.72 15.182 13.72-6.132-1.75-12.262-5.983-18.247-12.698l-.73-1.022.875-1.022c8.029-8.905 16.057-13.43 24.233-13.576h.146c8.32 0 16.494 4.525 24.523 13.576l.876 1.022-.876 1.022c-6.13 6.715-12.262 10.948-18.246 12.699 0 0 9.78-8.029 15.181-13.721Zm-31.677-1.46c0 5.693 4.525 10.219 10.219 10.219a10.156 10.156 0 0 0 10.219-10.219 10.156 10.156 0 0 0-10.22-10.219c-5.693 0-10.218 4.526-10.218 10.22Zm-32.407-17.08 1.168 2.628c-10.364 4.233-15.326 16.203-11.093 26.568l-2.628 1.168c-4.963-11.824.73-25.545 12.553-30.363Z" fill="#fff" fill-rule="evenodd" data-name="Path 42"/></svg>