<svg xmlns="http://www.w3.org/2000/svg" width="19.047" height="15.508"><path d="M18.932 1.723a.378.378 0 0 0-.388-.087l-.643.222c.379-.458.658-.936.805-1.39a.358.358 0 0 0-.481-.44c-.901.379-1.698.707-2.332.904a.088.088 0 0 1-.072-.01C15.316.64 14.05-.01 13.152 0 10.88.042 9.031 1.984 9.031 4.33v.128C5.685 3.81 3.836 2.847 1.834.747L1.52.417l-.208.403C.226 2.923.997 4.808 2.267 6.077c-.563-.086-.972-.268-1.316-.568a.39.39 0 0 0-.631.395C.747 7.417 1.892 8.66 3.1 9.401c-.584 0-1.064-.066-1.547-.376a.389.389 0 0 0-.58.457c.59 1.654 1.691 2.524 3.516 2.741-.938.549-2.155.982-4.056 1.022a.443.443 0 0 0-.41.3.429.429 0 0 0 .139.476c1.155.931 3.746 1.487 6.93 1.487 5.701 0 10.34-5.072 10.34-11.308v-.11c.737-.352 1.3-1.047 1.597-1.983a.375.375 0 0 0-.097-.384Z" fill="#fff" fill-rule="evenodd" data-name="Path 633"/></svg>