<svg xmlns="http://www.w3.org/2000/svg" width="18.911" height="13.001" viewBox="-1.106 -0.761 18.911 13.001"><path d="M17.001.492c-.513-.912-1.07-1.08-2.203-1.144-1.132-.077-3.98-.109-6.446-.109-2.472 0-5.32.032-6.451.108C.769-.588.21-.421-.306.492c-.528.912-.8 2.481-.8 5.245V5.746c0 2.752.272 4.333.8 5.235.518.912 1.074 1.078 2.205 1.155 1.133.066 3.981.105 6.453.105 2.466 0 5.314-.04 6.447-.104 1.134-.077 1.69-.242 2.203-1.155.533-.902.803-2.483.803-5.235V5.738c0-2.765-.27-4.334-.804-5.246ZM5.985 9.286V2.194l5.91 3.546-5.91 3.546Z" fill="#fff" fill-rule="evenodd" data-name="Path 636"/></svg>